<svg xmlns="http://www.w3.org/2000/svg" viewBox="0 0 60 60">
  <style>
    @keyframes shimmer { 0%,100%{opacity:0.3} 50%{opacity:0.6} }
    .base { fill:#8B7355; opacity:0.5; }
    .spike { fill:#AAAAAA; }
    .spike-hi { fill:#CCCCCC; }
    .highlight { fill:#DDDDDD; animation: shimmer 1.5s ease-in-out infinite; }
  </style>
  <g>
    <ellipse class="base" cx="30" cy="42" rx="24" ry="6"/>
    <polygon class="spike" points="10,40 8,28 14,40"/>
    <polygon class="spike-hi" points="10,38 9,30 13,38"/>
    <polygon class="spike" points="18,40 16,24 22,40"/>
    <polygon class="spike-hi" points="18,38 17,28 21,38"/>
    <polygon class="spike" points="26,40 24,20 30,40"/>
    <polygon class="spike-hi" points="26,38 25,24 29,38"/>
    <polygon class="spike" points="34,40 32,24 38,40"/>
    <polygon class="spike-hi" points="34,38 33,28 37,38"/>
    <polygon class="spike" points="42,40 40,28 46,40"/>
    <polygon class="spike-hi" points="42,38 41,30 45,38"/>
    <polygon class="spike" points="50,40 48,32 54,40"/>
    <polygon class="spike-hi" points="50,38 49,34 53,38"/>
    <ellipse class="highlight" cx="20" cy="30" rx="3" ry="1.5"/>
    <ellipse class="highlight" cx="38" cy="28" rx="3" ry="1.5"/>
  </g>
</svg>