<svg xmlns="http://www.w3.org/2000/svg" viewBox="0 0 60 100">
  <style>
    @keyframes walk { 0%,100%{transform:rotate(-3deg)} 50%{transform:rotate(3deg)} }
    @keyframes flag { 0%,100%{transform:rotate(-5deg)} 50%{transform:rotate(5deg)} }
    .skin { fill:#7B8B6F; }
    .shirt { fill:#8B6914; }
    .pants { fill:#4a4a2a; }
    .eye { fill:#fff; }
    .pupil { fill:#c00; }
    .flag { fill:#cc0000; }
    .pole { fill:#8B6914; }
    .walk { animation: walk 0.5s ease-in-out infinite; transform-origin: 30px 50px; }
  </style>
  <g class="walk">
    <circle class="skin" cx="30" cy="18" r="14"/>
    <circle class="eye" cx="25" cy="16" r="4"/>
    <circle class="eye" cx="35" cy="16" r="4"/>
    <circle class="pupil" cx="26" cy="16" r="2"/>
    <circle class="pupil" cx="36" cy="16" r="2"/>
    <ellipse cx="30" cy="24" rx="6" ry="3" fill="#4a3a2a"/>
    <rect class="shirt" x="18" y="30" width="24" height="28" rx="3"/>
    <!-- 红旗 -->
    <g style="animation: flag 0.8s ease-in-out infinite; transform-origin: 48px 20px;">
      <rect class="pole" x="46" y="5" width="3" height="60" rx="1"/>
      <polygon class="flag" points="49,5 49,25 60,15"/>
      <polygon fill="#aa0000" points="49,15 49,25 56,20"/>
    </g>
    <rect class="pants" x="20" y="56" width="8" height="25" rx="3"/>
    <rect class="pants" x="32" y="56" width="8" height="25" rx="3"/>
    <rect fill="#3a3a1a" x="18" y="78" width="12" height="6" rx="2"/>
    <rect fill="#3a3a1a" x="30" y="78" width="12" height="6" rx="2"/>
  </g>
</svg>
