<svg xmlns="http://www.w3.org/2000/svg" viewBox="0 0 60 100">
  <style>
    @keyframes walk { 0%,100%{transform:rotate(-3deg)} 50%{transform:rotate(3deg)} }
    @keyframes arm { 0%,100%{transform:rotate(-10deg)} 50%{transform:rotate(5deg)} }
    .skin { fill:#7B8B6F; }
    .skin-dark { fill:#5a6a50; }
    .shirt { fill:#8B6914; }
    .pants { fill:#4a4a2a; }
    .shoe { fill:#3a3a1a; }
    .eye { fill:#fff; }
    .pupil { fill:#c00; }
    .walk { animation: walk 0.6s ease-in-out infinite; transform-origin: 30px 50px; }
    .arm { animation: arm 0.6s ease-in-out infinite; transform-origin: 30px 40px; }
  </style>
  <g class="walk">
    <!-- 头 -->
    <circle class="skin" cx="30" cy="18" r="14"/>
    <circle class="skin-dark" cx="30" cy="16" r="12" opacity="0.3"/>
    <!-- 眼睛 -->
    <circle class="eye" cx="25" cy="16" r="4"/>
    <circle class="eye" cx="35" cy="16" r="4"/>
    <circle class="pupil" cx="26" cy="16" r="2"/>
    <circle class="pupil" cx="36" cy="16" r="2"/>
    <!-- 嘴 -->
    <ellipse cx="30" cy="24" rx="6" ry="3" fill="#4a3a2a"/>
    <!-- 身体 -->
    <rect class="shirt" x="18" y="30" width="24" height="28" rx="3"/>
    <!-- 领带 -->
    <polygon fill="#6a4a0a" points="30,30 26,45 30,42 34,45"/>
    <!-- 左臂 -->
    <g class="arm" style="animation-delay:0.1s">
      <rect class="skin" x="10" y="32" width="8" height="25" rx="3" transform="rotate(10,14,32)"/>
      <rect class="skin-dark" x="10" y="52" width="8" height="6" rx="2" transform="rotate(10,14,52)"/>
    </g>
    <!-- 右臂 -->
    <g class="arm">
      <rect class="skin" x="42" y="32" width="8" height="25" rx="3" transform="rotate(-15,46,32)"/>
    </g>
    <!-- 左腿 -->
    <rect class="pants" x="20" y="56" width="8" height="25" rx="3"/>
    <rect class="shoe" x="18" y="78" width="12" height="6" rx="2"/>
    <!-- 右腿 -->
    <rect class="pants" x="32" y="56" width="8" height="25" rx="3"/>
    <rect class="shoe" x="30" y="78" width="12" height="6" rx="2"/>
  </g>
</svg>
